<mxfile host="app.diagrams.net" agent="Mozilla/5.0 (Windows NT 10.0; Win64; x64) AppleWebKit/537.36 (KHTML, like Gecko) Chrome/129.0.0.0 Safari/537.36" version="24.7.17">
  <diagram name="Page-1" id="zdLS6XzUSG3x8lp1yBCd">
    <mxGraphModel dx="1434" dy="841" grid="1" gridSize="10" guides="1" tooltips="1" connect="1" arrows="1" fold="1" page="1" pageScale="1" pageWidth="850" pageHeight="1100" background="none" math="0" shadow="0">
      <root>
        <mxCell id="0" />
        <mxCell id="1" parent="0" />
        <mxCell id="_PjYLiZ7u1xAUvMMXe8_-1" value="&lt;font face=&quot;Helvetica&quot; style=&quot;font-size: 24px;&quot;&gt;4&lt;/font&gt;" style="ellipse;whiteSpace=wrap;html=1;aspect=fixed;strokeWidth=2;" parent="1" vertex="1">
          <mxGeometry x="265" y="288.75" width="40" height="40" as="geometry" />
        </mxCell>
        <mxCell id="_PjYLiZ7u1xAUvMMXe8_-2" value="&lt;font face=&quot;Helvetica&quot; style=&quot;font-size: 24px;&quot;&gt;3&lt;/font&gt;" style="ellipse;whiteSpace=wrap;html=1;aspect=fixed;strokeWidth=2;" parent="1" vertex="1">
          <mxGeometry x="345" y="368.75" width="40" height="40" as="geometry" />
        </mxCell>
        <mxCell id="_PjYLiZ7u1xAUvMMXe8_-3" value="&lt;span style=&quot;font-size: 24px;&quot;&gt;5&lt;/span&gt;" style="ellipse;whiteSpace=wrap;html=1;aspect=fixed;strokeWidth=2;" parent="1" vertex="1">
          <mxGeometry x="185" y="368.75" width="40" height="40" as="geometry" />
        </mxCell>
        <mxCell id="_PjYLiZ7u1xAUvMMXe8_-4" value="&lt;font face=&quot;Helvetica&quot; style=&quot;font-size: 24px;&quot;&gt;1&lt;/font&gt;" style="ellipse;whiteSpace=wrap;html=1;aspect=fixed;strokeWidth=2;" parent="1" vertex="1">
          <mxGeometry x="265" y="168.75" width="40" height="40" as="geometry" />
        </mxCell>
        <mxCell id="_PjYLiZ7u1xAUvMMXe8_-5" value="&lt;font face=&quot;Helvetica&quot; style=&quot;font-size: 24px;&quot;&gt;0&lt;/font&gt;" style="ellipse;whiteSpace=wrap;html=1;aspect=fixed;strokeWidth=2;" parent="1" vertex="1">
          <mxGeometry x="185" y="88.75" width="40" height="40" as="geometry" />
        </mxCell>
        <mxCell id="_PjYLiZ7u1xAUvMMXe8_-6" value="&lt;font face=&quot;Helvetica&quot; style=&quot;font-size: 24px;&quot;&gt;2&lt;/font&gt;" style="ellipse;whiteSpace=wrap;html=1;aspect=fixed;strokeWidth=2;" parent="1" vertex="1">
          <mxGeometry x="345" y="88.75" width="40" height="40" as="geometry" />
        </mxCell>
        <mxCell id="_PjYLiZ7u1xAUvMMXe8_-12" value="" style="endArrow=classic;html=1;rounded=0;exitX=0;exitY=0;exitDx=0;exitDy=0;entryX=1;entryY=1;entryDx=0;entryDy=0;strokeWidth=2;" parent="1" source="_PjYLiZ7u1xAUvMMXe8_-2" target="_PjYLiZ7u1xAUvMMXe8_-1" edge="1">
          <mxGeometry width="50" height="50" relative="1" as="geometry">
            <mxPoint x="545" y="508.75" as="sourcePoint" />
            <mxPoint x="595" y="458.75" as="targetPoint" />
          </mxGeometry>
        </mxCell>
        <mxCell id="_PjYLiZ7u1xAUvMMXe8_-14" value="" style="endArrow=classic;html=1;rounded=0;exitX=0;exitY=0.5;exitDx=0;exitDy=0;entryX=1;entryY=0.5;entryDx=0;entryDy=0;strokeWidth=2;" parent="1" source="_PjYLiZ7u1xAUvMMXe8_-2" target="_PjYLiZ7u1xAUvMMXe8_-3" edge="1">
          <mxGeometry width="50" height="50" relative="1" as="geometry">
            <mxPoint x="545" y="508.75" as="sourcePoint" />
            <mxPoint x="595" y="458.75" as="targetPoint" />
          </mxGeometry>
        </mxCell>
        <mxCell id="_PjYLiZ7u1xAUvMMXe8_-15" value="" style="endArrow=classic;html=1;rounded=0;exitX=0;exitY=1;exitDx=0;exitDy=0;entryX=1;entryY=0;entryDx=0;entryDy=0;strokeWidth=2;" parent="1" source="_PjYLiZ7u1xAUvMMXe8_-1" target="_PjYLiZ7u1xAUvMMXe8_-3" edge="1">
          <mxGeometry width="50" height="50" relative="1" as="geometry">
            <mxPoint x="361" y="384.75" as="sourcePoint" />
            <mxPoint x="309" y="332.75" as="targetPoint" />
          </mxGeometry>
        </mxCell>
        <mxCell id="_PjYLiZ7u1xAUvMMXe8_-18" value="" style="endArrow=classic;html=1;rounded=0;exitX=0.5;exitY=1;exitDx=0;exitDy=0;strokeWidth=2;entryX=0.5;entryY=0;entryDx=0;entryDy=0;" parent="1" source="_PjYLiZ7u1xAUvMMXe8_-4" target="_PjYLiZ7u1xAUvMMXe8_-1" edge="1">
          <mxGeometry width="50" height="50" relative="1" as="geometry">
            <mxPoint x="189" y="304.75" as="sourcePoint" />
            <mxPoint x="285" y="288.75" as="targetPoint" />
          </mxGeometry>
        </mxCell>
        <mxCell id="_PjYLiZ7u1xAUvMMXe8_-19" value="" style="endArrow=classic;html=1;rounded=0;strokeWidth=2;entryX=0;entryY=0;entryDx=0;entryDy=0;exitX=1;exitY=1;exitDx=0;exitDy=0;" parent="1" source="_PjYLiZ7u1xAUvMMXe8_-5" target="_PjYLiZ7u1xAUvMMXe8_-4" edge="1">
          <mxGeometry width="50" height="50" relative="1" as="geometry">
            <mxPoint x="195" y="168.75" as="sourcePoint" />
            <mxPoint x="205" y="174.75" as="targetPoint" />
          </mxGeometry>
        </mxCell>
        <mxCell id="_PjYLiZ7u1xAUvMMXe8_-20" value="" style="endArrow=classic;html=1;rounded=0;strokeWidth=2;entryX=0;entryY=1;entryDx=0;entryDy=0;exitX=1;exitY=0;exitDx=0;exitDy=0;" parent="1" source="_PjYLiZ7u1xAUvMMXe8_-4" target="_PjYLiZ7u1xAUvMMXe8_-6" edge="1">
          <mxGeometry width="50" height="50" relative="1" as="geometry">
            <mxPoint x="355" y="168.75" as="sourcePoint" />
            <mxPoint x="281" y="184.75" as="targetPoint" />
          </mxGeometry>
        </mxCell>
        <mxCell id="SQ0-s9kljDMQRxsfRWVH-1" value="" style="endArrow=classic;html=1;rounded=0;strokeWidth=2;entryX=0;entryY=0.5;entryDx=0;entryDy=0;exitX=1;exitY=0.5;exitDx=0;exitDy=0;" parent="1" source="_PjYLiZ7u1xAUvMMXe8_-5" target="_PjYLiZ7u1xAUvMMXe8_-6" edge="1">
          <mxGeometry width="50" height="50" relative="1" as="geometry">
            <mxPoint x="265" y="68.75" as="sourcePoint" />
            <mxPoint x="315" y="198.75" as="targetPoint" />
          </mxGeometry>
        </mxCell>
        <mxCell id="SQ0-s9kljDMQRxsfRWVH-2" value="" style="ellipse;whiteSpace=wrap;html=1;fillColor=none;dashed=1;" parent="1" vertex="1">
          <mxGeometry x="175" y="278.75" width="220" height="170" as="geometry" />
        </mxCell>
        <mxCell id="SQ0-s9kljDMQRxsfRWVH-14" value="" style="ellipse;whiteSpace=wrap;html=1;fillColor=none;dashed=1;" parent="1" vertex="1">
          <mxGeometry x="175" y="48.75" width="220" height="170" as="geometry" />
        </mxCell>
        <mxCell id="SQ0-s9kljDMQRxsfRWVH-17" value="" style="ellipse;whiteSpace=wrap;html=1;fillColor=none;dashed=1;" parent="1" vertex="1">
          <mxGeometry x="255" y="148.75" width="60" height="197.5" as="geometry" />
        </mxCell>
        <mxCell id="SQ0-s9kljDMQRxsfRWVH-22" value="" style="ellipse;whiteSpace=wrap;html=1;aspect=fixed;strokeWidth=2;fontSize=15;" parent="1" vertex="1">
          <mxGeometry x="615" y="40" width="60" height="60" as="geometry" />
        </mxCell>
        <mxCell id="SQ0-s9kljDMQRxsfRWVH-23" value="&lt;font face=&quot;Helvetica&quot; style=&quot;font-size: 24px;&quot;&gt;1&lt;/font&gt;" style="ellipse;whiteSpace=wrap;html=1;aspect=fixed;strokeWidth=2;" parent="1" vertex="1">
          <mxGeometry x="625" y="140" width="40" height="40" as="geometry" />
        </mxCell>
        <mxCell id="SQ0-s9kljDMQRxsfRWVH-24" value="&lt;span style=&quot;font-size: 24px;&quot;&gt;&lt;span style=&quot;font-style: italic;&quot;&gt;B&lt;/span&gt;&lt;span style=&quot;&quot;&gt;&lt;sub style=&quot;&quot;&gt;0&lt;/sub&gt;&lt;/span&gt;&lt;/span&gt;" style="text;html=1;align=center;verticalAlign=middle;resizable=0;points=[];autosize=1;strokeColor=none;fillColor=none;strokeWidth=1;fontFamily=Times New Roman;fontStyle=0" parent="1" vertex="1">
          <mxGeometry x="620" y="45" width="50" height="50" as="geometry" />
        </mxCell>
        <mxCell id="SQ0-s9kljDMQRxsfRWVH-25" value="&lt;var style=&quot;font-size: 24px;&quot; class=&quot;vector&quot;&gt;&lt;span style=&quot;font-size: 24px;&quot;&gt;&lt;font style=&quot;font-size: 24px;&quot;&gt;⃗&lt;/font&gt;&lt;/span&gt;&lt;/var&gt;" style="text;html=1;align=center;verticalAlign=middle;resizable=0;points=[];autosize=1;strokeColor=none;fillColor=none;fontFamily=Times New Roman;fontSize=24;" parent="1" vertex="1">
          <mxGeometry x="635" y="40" width="20" height="40" as="geometry" />
        </mxCell>
        <mxCell id="SQ0-s9kljDMQRxsfRWVH-26" value="" style="endArrow=none;html=1;rounded=0;entryX=0.5;entryY=1;entryDx=0;entryDy=0;exitX=0.5;exitY=0;exitDx=0;exitDy=0;fontSize=11;strokeWidth=2;" parent="1" source="SQ0-s9kljDMQRxsfRWVH-23" target="SQ0-s9kljDMQRxsfRWVH-22" edge="1">
          <mxGeometry width="50" height="50" relative="1" as="geometry">
            <mxPoint x="625" y="260" as="sourcePoint" />
            <mxPoint x="675" y="210" as="targetPoint" />
          </mxGeometry>
        </mxCell>
        <mxCell id="SQ0-s9kljDMQRxsfRWVH-27" value="" style="ellipse;whiteSpace=wrap;html=1;aspect=fixed;strokeWidth=2;fontSize=15;" parent="1" vertex="1">
          <mxGeometry x="615" y="220" width="60" height="60" as="geometry" />
        </mxCell>
        <mxCell id="SQ0-s9kljDMQRxsfRWVH-28" value="&lt;span style=&quot;font-size: 24px;&quot;&gt;&lt;span style=&quot;font-style: italic;&quot;&gt;B&lt;/span&gt;&lt;span style=&quot;&quot;&gt;&lt;sub style=&quot;&quot;&gt;1&lt;/sub&gt;&lt;/span&gt;&lt;/span&gt;" style="text;html=1;align=center;verticalAlign=middle;resizable=0;points=[];autosize=1;strokeColor=none;fillColor=none;strokeWidth=1;fontFamily=Times New Roman;fontStyle=0" parent="1" vertex="1">
          <mxGeometry x="620" y="225" width="50" height="50" as="geometry" />
        </mxCell>
        <mxCell id="SQ0-s9kljDMQRxsfRWVH-29" value="&lt;var style=&quot;font-size: 24px;&quot; class=&quot;vector&quot;&gt;&lt;span style=&quot;font-size: 24px;&quot;&gt;&lt;font style=&quot;font-size: 24px;&quot;&gt;⃗&lt;/font&gt;&lt;/span&gt;&lt;/var&gt;" style="text;html=1;align=center;verticalAlign=middle;resizable=0;points=[];autosize=1;strokeColor=none;fillColor=none;fontFamily=Times New Roman;fontSize=24;" parent="1" vertex="1">
          <mxGeometry x="635" y="220" width="20" height="40" as="geometry" />
        </mxCell>
        <mxCell id="SQ0-s9kljDMQRxsfRWVH-30" value="" style="endArrow=none;html=1;rounded=0;entryX=0.5;entryY=0;entryDx=0;entryDy=0;exitX=0.5;exitY=1;exitDx=0;exitDy=0;fontSize=11;strokeWidth=2;" parent="1" source="SQ0-s9kljDMQRxsfRWVH-23" target="SQ0-s9kljDMQRxsfRWVH-27" edge="1">
          <mxGeometry width="50" height="50" relative="1" as="geometry">
            <mxPoint x="655" y="150" as="sourcePoint" />
            <mxPoint x="655" y="110" as="targetPoint" />
          </mxGeometry>
        </mxCell>
        <mxCell id="SQ0-s9kljDMQRxsfRWVH-31" value="&lt;font face=&quot;Helvetica&quot; style=&quot;font-size: 24px;&quot;&gt;4&lt;/font&gt;" style="ellipse;whiteSpace=wrap;html=1;aspect=fixed;strokeWidth=2;" parent="1" vertex="1">
          <mxGeometry x="625" y="320" width="40" height="40" as="geometry" />
        </mxCell>
        <mxCell id="SQ0-s9kljDMQRxsfRWVH-32" value="" style="endArrow=none;html=1;rounded=0;entryX=0.5;entryY=1;entryDx=0;entryDy=0;exitX=0.5;exitY=0;exitDx=0;exitDy=0;fontSize=11;strokeWidth=2;" parent="1" source="SQ0-s9kljDMQRxsfRWVH-31" target="SQ0-s9kljDMQRxsfRWVH-27" edge="1">
          <mxGeometry width="50" height="50" relative="1" as="geometry">
            <mxPoint x="625" y="440" as="sourcePoint" />
            <mxPoint x="645" y="280" as="targetPoint" />
          </mxGeometry>
        </mxCell>
        <mxCell id="SQ0-s9kljDMQRxsfRWVH-33" value="" style="ellipse;whiteSpace=wrap;html=1;aspect=fixed;strokeWidth=2;fontSize=15;" parent="1" vertex="1">
          <mxGeometry x="615" y="400" width="60" height="60" as="geometry" />
        </mxCell>
        <mxCell id="SQ0-s9kljDMQRxsfRWVH-34" value="&lt;span style=&quot;font-size: 24px;&quot;&gt;&lt;span style=&quot;font-style: italic;&quot;&gt;B&lt;/span&gt;&lt;span style=&quot;&quot;&gt;&lt;sub style=&quot;&quot;&gt;2&lt;/sub&gt;&lt;/span&gt;&lt;/span&gt;" style="text;html=1;align=center;verticalAlign=middle;resizable=0;points=[];autosize=1;strokeColor=none;fillColor=none;strokeWidth=1;fontFamily=Times New Roman;fontStyle=0" parent="1" vertex="1">
          <mxGeometry x="620" y="405" width="50" height="50" as="geometry" />
        </mxCell>
        <mxCell id="SQ0-s9kljDMQRxsfRWVH-35" value="&lt;var style=&quot;font-size: 24px;&quot; class=&quot;vector&quot;&gt;&lt;span style=&quot;font-size: 24px;&quot;&gt;&lt;font style=&quot;font-size: 24px;&quot;&gt;⃗&lt;/font&gt;&lt;/span&gt;&lt;/var&gt;" style="text;html=1;align=center;verticalAlign=middle;resizable=0;points=[];autosize=1;strokeColor=none;fillColor=none;fontFamily=Times New Roman;fontSize=24;" parent="1" vertex="1">
          <mxGeometry x="635" y="400" width="20" height="40" as="geometry" />
        </mxCell>
        <mxCell id="SQ0-s9kljDMQRxsfRWVH-36" value="" style="endArrow=none;html=1;rounded=0;entryX=0.5;entryY=0;entryDx=0;entryDy=0;exitX=0.5;exitY=1;exitDx=0;exitDy=0;fontSize=11;strokeWidth=2;" parent="1" source="SQ0-s9kljDMQRxsfRWVH-31" target="SQ0-s9kljDMQRxsfRWVH-33" edge="1">
          <mxGeometry width="50" height="50" relative="1" as="geometry">
            <mxPoint x="655" y="330" as="sourcePoint" />
            <mxPoint x="655" y="290" as="targetPoint" />
          </mxGeometry>
        </mxCell>
        <mxCell id="ki2IfvqVQBa2T8Jl6dSp-2" value="&lt;span style=&quot;font-size: 24px; font-style: italic;&quot;&gt;B&lt;/span&gt;&lt;sub style=&quot;&quot;&gt;&lt;font style=&quot;font-size: 20px;&quot;&gt;0&lt;/font&gt;&lt;/sub&gt;" style="text;html=1;align=center;verticalAlign=middle;resizable=0;points=[];autosize=1;strokeColor=none;fillColor=none;strokeWidth=1;fontFamily=Times New Roman;fontStyle=0;fontSize=24;" vertex="1" parent="1">
          <mxGeometry x="395" y="110.25" width="50" height="50" as="geometry" />
        </mxCell>
        <mxCell id="ki2IfvqVQBa2T8Jl6dSp-3" value="&lt;var class=&quot;vector&quot;&gt;&lt;span&gt;&lt;font style=&quot;font-size: 24px;&quot;&gt;⃗&lt;/font&gt;&lt;/span&gt;&lt;/var&gt;" style="text;html=1;align=center;verticalAlign=middle;resizable=0;points=[];autosize=1;strokeColor=none;fillColor=none;fontFamily=Times New Roman;" vertex="1" parent="1">
          <mxGeometry x="410" y="107.25" width="20" height="40" as="geometry" />
        </mxCell>
        <mxCell id="ki2IfvqVQBa2T8Jl6dSp-4" value="&lt;span style=&quot;font-size: 24px; font-style: italic;&quot;&gt;B&lt;/span&gt;&lt;sub style=&quot;&quot;&gt;&lt;font style=&quot;font-size: 20px;&quot;&gt;1&lt;/font&gt;&lt;/sub&gt;" style="text;html=1;align=center;verticalAlign=middle;resizable=0;points=[];autosize=1;strokeColor=none;fillColor=none;strokeWidth=1;fontFamily=Times New Roman;fontStyle=0;fontSize=24;" vertex="1" parent="1">
          <mxGeometry x="315" y="225" width="50" height="50" as="geometry" />
        </mxCell>
        <mxCell id="ki2IfvqVQBa2T8Jl6dSp-5" value="&lt;var class=&quot;vector&quot;&gt;&lt;span&gt;&lt;font style=&quot;font-size: 24px;&quot;&gt;⃗&lt;/font&gt;&lt;/span&gt;&lt;/var&gt;" style="text;html=1;align=center;verticalAlign=middle;resizable=0;points=[];autosize=1;strokeColor=none;fillColor=none;fontFamily=Times New Roman;" vertex="1" parent="1">
          <mxGeometry x="330" y="222" width="20" height="40" as="geometry" />
        </mxCell>
        <mxCell id="ki2IfvqVQBa2T8Jl6dSp-6" value="&lt;span style=&quot;font-size: 24px; font-style: italic;&quot;&gt;B&lt;/span&gt;&lt;sub style=&quot;&quot;&gt;&lt;font style=&quot;font-size: 20px;&quot;&gt;2&lt;/font&gt;&lt;/sub&gt;" style="text;html=1;align=center;verticalAlign=middle;resizable=0;points=[];autosize=1;strokeColor=none;fillColor=none;strokeWidth=1;fontFamily=Times New Roman;fontStyle=0;fontSize=24;" vertex="1" parent="1">
          <mxGeometry x="400" y="340.25" width="50" height="50" as="geometry" />
        </mxCell>
        <mxCell id="ki2IfvqVQBa2T8Jl6dSp-7" value="&lt;var class=&quot;vector&quot;&gt;&lt;span&gt;&lt;font style=&quot;font-size: 24px;&quot;&gt;⃗&lt;/font&gt;&lt;/span&gt;&lt;/var&gt;" style="text;html=1;align=center;verticalAlign=middle;resizable=0;points=[];autosize=1;strokeColor=none;fillColor=none;fontFamily=Times New Roman;" vertex="1" parent="1">
          <mxGeometry x="415" y="337.25" width="20" height="40" as="geometry" />
        </mxCell>
      </root>
    </mxGraphModel>
  </diagram>
</mxfile>
